<svg width="44" height="38" viewBox="0 0 44 38" fill="none" xmlns="http://www.w3.org/2000/svg">
<rect width="44" height="38" rx="3" fill="#FFFBFB"/>
<path d="M7.44 26.688C7.328 27.04 7.072 27.216 6.672 27.216C6.288 27.216 5.848 27 5.352 26.568C5.832 25.16 6.848 22.896 8.4 19.776C9.952 16.64 10.96 14.296 11.424 12.744C11.488 12.488 11.52 12.312 11.52 12.216C11.52 11.976 11.344 11.608 10.992 11.112L10.8 10.848L10.848 10.536C12.208 10.152 13.712 9.96 15.36 9.96L16.824 10.056C17 10.296 17.136 10.664 17.232 11.16C17.488 12.376 17.616 15.504 17.616 20.544C17.616 22.496 17.784 23.872 18.12 24.672C18.248 24.976 18.376 25.128 18.504 25.128C18.632 25.128 19.024 24.968 19.68 24.648L19.992 24.504L20.472 25.368C19.864 25.96 19.184 26.432 18.432 26.784C17.696 27.12 17.016 27.288 16.392 27.288C14.776 27.288 13.968 26.032 13.968 23.52V21.624C13.552 21.528 12.92 21.48 12.072 21.48C11.224 21.48 10.296 21.56 9.288 21.72C8.488 23.576 7.872 25.232 7.44 26.688ZM14.016 19.992L14.04 17.208C14.04 14.776 13.936 13.128 13.728 12.264C13.6 12.264 13.504 12.28 13.44 12.312C12.992 13.544 12.568 14.592 12.168 15.456C11.784 16.304 11.36 17.216 10.896 18.192C10.448 19.152 10.168 19.752 10.056 19.992H14.016ZM21.0281 27.072H20.8601C20.8281 26.944 20.8121 26.656 20.8121 26.208C20.8121 25.744 21.0281 24.512 21.4601 22.512C21.8921 20.512 22.1081 19.368 22.1081 19.08C22.1081 18.584 21.8841 18.04 21.4361 17.448L21.2201 17.16L21.2441 16.848C22.1081 16.608 23.4921 16.488 25.3961 16.488C25.5881 16.904 25.6841 17.488 25.6841 18.24C25.8601 17.952 26.2281 17.568 26.7881 17.088C27.3481 16.608 27.9241 16.368 28.5161 16.368C29.3801 16.368 29.8121 17.12 29.8121 18.624C29.7321 18.72 29.6201 18.848 29.4761 19.008C29.3481 19.152 29.0761 19.36 28.6601 19.632C28.2601 19.904 27.8681 20.072 27.4841 20.136C27.4681 20.136 27.3321 19.92 27.0761 19.488C26.8201 19.056 26.6281 18.84 26.5001 18.84C26.1001 18.984 25.7481 19.224 25.4441 19.56C24.7081 22.872 24.3401 25.016 24.3401 25.992C24.3401 26.344 24.3481 26.592 24.3641 26.736C23.8041 26.96 22.6921 27.072 21.0281 27.072ZM37.2711 16.656C37.2391 17.056 37.1031 17.52 36.8631 18.048C36.2551 17.984 35.6791 17.952 35.1351 17.952H34.7031C33.9671 21.52 33.5991 23.744 33.5991 24.624C33.5991 25.088 33.6951 25.32 33.8871 25.32C34.0951 25.32 34.6311 25.12 35.4951 24.72L35.9271 25.512C34.5031 26.696 33.1831 27.288 31.9671 27.288C31.4071 27.288 30.9431 27.112 30.5751 26.76C30.2231 26.408 30.0471 25.944 30.0471 25.368C30.0471 24.776 30.1111 24.112 30.2391 23.376C30.3831 22.64 30.5751 21.744 30.8151 20.688C31.0551 19.616 31.2311 18.752 31.3431 18.096C30.7511 18.144 30.3111 18.192 30.0231 18.24C29.9911 18.048 29.9751 17.792 29.9751 17.472C29.9751 17.136 29.9991 16.864 30.0471 16.656H31.5591C31.6871 15.792 31.7511 14.976 31.7511 14.208L31.7271 13.464V13.392C32.9751 12.96 34.1511 12.744 35.2551 12.744C35.3191 13.064 35.3511 13.464 35.3511 13.944C35.3511 14.424 35.2151 15.328 34.9431 16.656H37.2711Z" fill="#6C62E2"/>
</svg>